# 3ds Max Wavefront OBJ Exporter v0.97b - (c)2007 guruware
# File Created: 24.10.2018 14:25:52

mtllib leg4.mtl

#
# object leg4
#

v  13.6014 5.6122 -7.2916
v  12.4646 0.0044 -7.4761
v  12.1378 5.6122 -7.2967
v  13.7887 0.0089 -7.4715
v  13.7855 0.0045 -6.0390
v  13.5979 5.6122 -5.7082
v  13.5669 6.5379 -5.6535
v  13.5704 6.5382 -7.2619
v  12.0838 6.5379 -7.2671
v  12.1343 5.6122 -5.7132
v  12.4614 0.0000 -6.0436
v  12.0802 6.5376 -5.6587
v  13.0917 20.7299 -4.8159
v  11.2520 20.7297 -4.8224
v  13.0961 20.7301 -6.8063
v  11.2564 20.7299 -6.8127
# 16 vertices

vn 0.0035 0.0322 -0.9995
vn 0.0034 0.0322 -0.9995
vn 0.9994 0.0333 0.0023
vn 0.9994 0.0333 0.0022
vn -0.9983 -0.0581 -0.0022
vn -0.9983 -0.0581 -0.0024
vn 0.0034 -1.0000 -0.0031
vn -0.0033 -0.0590 0.9983
vn -0.0035 -0.0590 0.9983
vn -0.0035 -0.0590 0.9982
vn -0.0001 1.0000 0.0001
# 11 vertex normals

vt -0.7837 0.3013 0.0000
vt -0.7259 -0.0020 0.0000
vt -0.7093 0.3013 0.0000
vt -0.7837 0.3013 0.0000
vt -0.7932 -0.0018 0.0000
vt -0.7259 -0.0020 0.0000
vt 0.1017 -0.0244 0.0000
vt 0.0949 0.2788 0.0000
vt 0.0482 -0.0246 0.0000
vt 0.0948 0.2788 0.0000
vt 0.0357 0.2788 0.0000
vt 0.0481 -0.0246 0.0000
vt 0.0948 0.2788 0.0000
vt 0.0336 0.3289 0.0000
vt 0.0357 0.2788 0.0000
vt 0.0948 0.2788 0.0000
vt 0.0937 0.3289 0.0000
vt 0.0336 0.3289 0.0000
vt -0.7821 0.3514 0.0000
vt -0.7837 0.3013 0.0000
vt -0.7093 0.3013 0.0000
vt -0.7821 0.3514 0.0000
vt -0.7093 0.3013 0.0000
vt -0.7066 0.3514 0.0000
vt -0.0948 0.2643 0.0000
vt -0.0357 0.2643 0.0000
vt -0.0937 0.3145 0.0000
vt -0.0948 0.2644 0.0000
vt -0.0481 -0.0396 0.0000
vt -0.0357 0.2644 0.0000
vt -0.1017 -0.0394 0.0000
vt -0.0482 -0.0396 0.0000
vt -0.0949 0.2643 0.0000
vt -0.5870 0.5355 0.0000
vt -0.5347 0.4932 0.0000
vt -0.5011 0.5349 0.0000
vt 0.7836 0.3018 0.0000
vt 0.7259 -0.0019 0.0000
vt 0.7931 -0.0017 0.0000
vt 0.7836 0.3018 0.0000
vt 0.7093 0.3018 0.0000
vt 0.7259 -0.0019 0.0000
vt 0.7836 0.3018 0.0000
vt 0.7065 0.3519 0.0000
vt 0.7093 0.3018 0.0000
vt 0.7821 0.3519 0.0000
vt 0.7580 1.1201 0.0000
vt 0.7065 0.3519 0.0000
vt 0.7821 0.3519 0.0000
vt 0.7580 1.1201 0.0000
vt 0.6645 1.1201 0.0000
vt 0.7065 0.3519 0.0000
vt 0.7584 0.0745 0.0000
vt 0.6647 0.0004 0.0000
vt 0.7581 0.0002 0.0000
vt 0.7584 0.0745 0.0000
vt 0.6649 0.0748 0.0000
vt 0.6647 0.0004 0.0000
vt -0.7580 1.1191 0.0000
vt -0.7066 0.3514 0.0000
vt -0.6646 1.1191 0.0000
vt -0.7580 1.1191 0.0000
vt -0.7821 0.3514 0.0000
vt -0.7066 0.3514 0.0000
vt 0.0937 0.3289 0.0000
vt 0.0766 1.0968 0.0000
vt 0.0336 0.3289 0.0000
vt 0.0766 1.0968 0.0000
vt 0.0023 1.0968 0.0000
vt 0.0336 0.3289 0.0000
vt -0.0937 0.3145 0.0000
vt -0.0336 0.3144 0.0000
vt -0.0766 1.0831 0.0000
vt -0.0937 0.3145 0.0000
vt -0.0357 0.2643 0.0000
vt -0.0336 0.3144 0.0000
vt -0.0766 1.0831 0.0000
vt -0.0336 0.3145 0.0000
vt -0.0022 1.0831 0.0000
vt -0.5534 0.5771 0.0000
# 80 texture coords

g leg4
usemtl _1
s 1
f 1/1/1 2/2/1 3/3/1 
f 1/4/2 4/5/2 2/6/2 
s 2
f 4/7/3 1/8/3 5/9/3 
f 1/10/4 6/11/4 5/12/4 
f 1/13/4 7/14/4 6/15/4 
f 1/16/4 8/17/4 7/18/4 
s 1
f 8/19/1 1/20/1 3/21/1 
f 8/22/1 3/23/1 9/24/1 
s 2
f 3/25/5 10/26/5 9/27/5 
f 3/28/5 11/29/5 10/30/5 
f 2/31/6 11/32/6 3/33/6 
s 4
f 5/34/7 11/35/7 2/36/7 
s 1
f 6/37/8 11/38/8 5/39/8 
f 6/40/9 10/41/9 11/42/9 
f 6/43/10 7/46/10 12/44/10 10/45/10 
f 13/47/9 12/48/9 7/49/9 
f 13/50/9 14/51/9 12/52/9 
s 4
f 15/53/11 14/54/11 13/55/11 
f 15/56/11 16/57/11 14/58/11 
s 1
f 15/59/1 9/60/1 16/61/1 
f 15/62/1 8/63/1 9/64/1 
s 2
f 8/65/4 15/66/4 7/67/4 
f 15/68/4 13/69/4 7/70/4 
f 9/71/5 12/72/5 16/73/5 
f 9/74/5 10/75/5 12/76/5 
f 16/77/5 12/78/5 14/79/5 
s 4
f 4/80/7 5/34/7 2/36/7 
# 1 polygons - 26 triangles

