# 3ds Max Wavefront OBJ Exporter v0.97b - (c)2007 guruware
# File Created: 20.10.2018 22:55:19

mtllib leg2.mtl

#
# object leg2
#

v  40.5161 18.5583 -61.3889
v  41.5413 18.5583 -46.9385
v  42.0413 18.5583 -46.9394
v  41.0161 18.5583 -61.3897
v  40.5161 16.5583 -61.3889
v  41.5413 16.5583 -46.9385
v  41.0161 16.5583 -61.3897
v  42.0413 16.5583 -46.9394
v  42.2913 18.5583 -46.9398
v  41.5413 4.5000 -46.9385
v  42.2930 18.5583 -45.9399
v  41.2926 18.5583 -46.1881
v  41.2930 18.5583 -45.9381
v  41.2913 18.5583 -46.9381
v  41.2917 18.5583 -46.6881
v  41.2913 0.5000 -46.9381
v  41.2917 16.5583 -46.6881
v  41.5413 3.5000 -46.9385
v  40.5127 4.5000 -63.2882
v  42.0413 4.5000 -46.9394
v  41.0127 4.5000 -63.2890
v  42.0413 3.5000 -46.9394
v  41.0125 3.5000 -63.4482
v  40.5125 3.5000 -63.4473
v  42.2913 0.5000 -46.9398
v  42.2930 0.5000 -45.9399
v  41.2930 0.5000 -45.9381
v  41.2926 16.5583 -46.1881
v  34.0426 16.5583 -46.1755
v  34.0417 16.5583 -46.6754
v  34.0426 18.5583 -46.1755
v  34.0417 18.5583 -46.6754
v  42.2925 17.4200 -46.2137
v  42.2924 17.2737 -46.2743
v  42.3649 17.2737 -46.2744
v  42.3650 17.4200 -46.2139
v  42.2919 17.5662 -46.5668
v  42.2918 17.4200 -46.6274
v  42.2924 17.5662 -46.2743
v  42.2922 17.6268 -46.4206
v  42.3649 17.5662 -46.2744
v  42.3644 17.2737 -46.5669
v  42.3643 17.4200 -46.6275
v  42.2919 17.2737 -46.5668
v  42.2922 17.2131 -46.4206
v  42.3647 17.2131 -46.4207
v  42.3644 17.5662 -46.5669
v  42.3647 17.6268 -46.4207
# 48 vertices

vn 0.0000 1.0000 0.0000
vn -0.9975 0.0000 0.0708
vn -0.0000 -1.0000 -0.0000
vn -0.0017 0.0000 -1.0000
vn 0.9975 -0.0000 -0.0708
vn -1.0000 0.0000 0.0017
vn -0.9980 0.0000 0.0628
vn 0.9980 -0.0000 -0.0628
vn 0.9980 0.0096 -0.0622
vn -0.0017 0.1571 -0.9876
vn 1.0000 -0.0000 -0.0017
vn 0.0017 -0.0000 1.0000
vn -0.0017 -0.0000 -1.0000
vn -0.9980 -0.0096 0.0622
vn 0.0016 -0.3827 0.9239
vn -1.0000 -0.0000 0.0017
vn 0.0016 0.3827 0.9239
vn 1.0000 0.0000 -0.0017
vn -0.0016 -0.3827 -0.9239
vn 0.0007 -0.9239 0.3827
vn -0.0007 -0.9239 -0.3827
vn -0.0016 0.3827 -0.9239
vn -0.0000 1.0000 -0.0000
vn 0.0000 1.0000 -0.0000
vn 0.0007 0.9239 0.3827
vn -0.0007 0.9239 -0.3827
# 26 vertex normals

vt -0.0295 -0.5688 0.0000
vt 0.0098 -0.0000 0.0000
vt -0.0098 -0.5688 0.0000
vt -0.0007 0.7107 0.0000
vt 0.5694 0.7107 0.0000
vt -0.0007 0.6320 0.0000
vt 0.5694 0.6320 0.0000
vt 0.0295 -0.5688 0.0000
vt 0.0098 -0.5688 0.0000
vt -0.0098 -0.0000 0.0000
vt -0.0098 0.6320 0.0000
vt -0.0295 0.6320 0.0000
vt -0.0098 0.7107 0.0000
vt -0.0295 0.7107 0.0000
vt -0.5681 0.6320 0.0000
vt -0.5681 0.7107 0.0000
vt 0.0020 0.6320 0.0000
vt 0.0020 0.7107 0.0000
vt 0.0295 0.7107 0.0000
vt 0.0394 0.7107 0.0000
vt 0.0295 0.6320 0.0000
vt 0.0394 -0.0000 0.0000
vt 0.0295 -0.0000 0.0000
vt 0.0394 0.0394 0.0000
vt -0.0000 0.0394 0.0000
vt -0.0000 0.0295 0.0000
vt -0.0000 0.0098 0.0000
vt -0.0000 -0.0000 0.0000
vt 0.0000 0.7107 0.0000
vt 0.0000 0.0000 0.0000
vt -0.0098 0.7107 0.0000
vt 0.0098 0.1181 0.0000
vt 0.0098 0.1574 0.0000
vt -0.0006 0.1574 0.0000
vt 0.6441 0.1574 0.0000
vt -0.0006 0.1181 0.0000
vt -0.0295 -0.6435 0.0000
vt 0.0098 -0.0000 0.0000
vt -0.0098 -0.6435 0.0000
vt 0.0295 0.0000 0.0000
vt 0.0018 0.1181 0.0000
vt -0.6429 0.1574 0.0000
vt 0.0018 0.1574 0.0000
vt -0.6492 0.1178 0.0000
vt -0.6429 0.1571 0.0000
vt 0.0018 0.1178 0.0000
vt -0.0098 0.0145 0.0000
vt -0.0295 0.0145 0.0000
vt -0.0098 0.0543 0.0000
vt 0.0295 -0.6498 0.0000
vt 0.0098 -0.6498 0.0000
vt -0.0098 -0.0000 0.0000
vt -0.0295 0.0000 0.0000
vt 0.0295 0.1181 0.0000
vt 0.0394 0.0000 0.0000
vt 0.0000 0.0000 0.0000
vt 0.0000 0.7107 0.0000
vt 0.0394 0.0000 0.0000
vt 0.0394 0.7107 0.0000
vt -0.0394 0.7107 0.0000
vt 0.0000 0.7107 0.0000
vt -0.0394 0.0000 0.0000
vt 0.0000 0.0000 0.0000
vt 0.0000 0.0394 0.0000
vt -0.0394 0.0394 0.0000
vt -0.0394 0.0000 0.0000
vt -0.0098 0.6320 0.0000
vt -0.0295 0.6320 0.0000
vt 0.0000 0.0098 0.0000
vt 0.0000 0.0295 0.0000
vt 0.2853 0.0098 0.0000
vt 0.2853 0.0295 0.0000
vt 0.2853 0.6320 0.0000
vt 0.0000 0.6320 0.0000
vt 0.2853 0.7107 0.0000
vt 0.0000 0.7107 0.0000
vt -0.2853 0.0295 0.0000
vt -0.2853 0.0098 0.0000
vt -0.2853 0.7107 0.0000
vt 0.0000 0.7107 0.0000
vt -0.2853 0.6320 0.0000
vt 0.0000 0.6320 0.0000
vt -0.0295 0.7107 0.0000
vt -0.0394 0.7107 0.0000
vt -0.0394 0.0000 0.0000
vt 0.0295 0.1574 0.0000
vt 0.0098 0.6320 0.0000
vt 0.0098 0.7107 0.0000
vt -0.0295 -0.0000 0.0000
vt 0.6441 0.1573 0.0000
vt 0.6504 0.1180 0.0000
vt -0.0006 0.1180 0.0000
vt -0.0295 0.0543 0.0000
vt -0.0328 0.0000 0.0000
vt -0.1911 0.0000 0.0000
vt -0.0328 0.2500 0.0000
vt -0.3531 0.3531 0.0000
vt -0.2068 0.4137 0.0000
vt -0.2068 0.0000 0.0000
vt -0.0606 0.0606 0.0000
vt -0.0606 0.3531 0.0000
vt -0.1911 0.0000 0.0000
vt -0.3494 0.0000 0.0000
vt -0.1911 0.2500 0.0000
vt -0.3494 0.2500 0.0000
vt 0.2068 0.4137 0.0000
vt 0.2068 0.0000 0.0000
vt 0.0606 0.3531 0.0000
vt 0.3531 0.0606 0.0000
vt 0.1911 0.2500 0.0000
vt 0.3494 0.2500 0.0000
vt 0.1911 0.0000 0.0000
vt 0.3494 0.0000 0.0000
vt -0.3531 0.0606 0.0000
vt -0.4137 0.2068 0.0000
vt 0.0328 0.0000 0.0000
vt 0.0328 0.2500 0.0000
vt 0.1911 0.0000 0.0000
vt 0.3494 0.2500 0.0000
vt 0.3494 0.0000 0.0000
vt 0.1911 0.2500 0.0000
vt 0.1911 0.0000 0.0000
vt 0.4137 0.2068 0.0000
vt 0.3531 0.3531 0.0000
vt -0.1911 0.2500 0.0000
vt 0.1911 0.2500 0.0000
vt 0.0328 0.0000 0.0000
vt 0.0328 0.2500 0.0000
vt 0.0606 0.0606 0.0000
vt 0.0000 0.2068 0.0000
vt -0.1911 0.2500 0.0000
vt -0.1911 0.0000 0.0000
vt -0.3494 0.2500 0.0000
vt -0.0328 0.0000 0.0000
vt -0.0328 0.2500 0.0000
vt 0.0000 0.2068 0.0000
vt -0.3494 0.0000 0.0000
# 137 texture coords

g leg2
usemtl ingo_ste
s off
f 1/1/1 2/2/1 3/23/1 4/3/1 
f 2/4/2 1/5/2 5/7/2 6/6/2 
f 5/8/3 7/9/3 8/89/3 6/10/3 
f 7/11/4 5/12/4 1/14/4 4/13/4 
f 7/15/5 4/16/5 3/18/5 8/17/5 
f 3/19/4 9/20/4 10/33/4 8/21/4 
f 9/22/1 3/23/1 2/2/1 11/24/1 
f 11/24/1 2/2/1 12/26/1 13/25/1 
f 12/26/1 2/2/1 14/28/1 15/27/1 
f 14/29/6 16/30/6 17/67/6 15/31/6 
f 14/29/4 10/33/4 18/32/4 16/30/4 
s 1
f 10/34/7 19/35/7 18/36/7 
s off
f 19/37/1 10/38/1 20/40/1 21/39/1 
s 1
f 22/41/8 21/42/8 20/43/8 
f 23/44/9 21/45/9 22/46/9 
s off
f 23/47/10 24/48/10 19/93/10 21/49/10 
f 24/50/3 23/51/3 22/53/3 18/52/3 
f 22/54/4 25/55/4 16/30/4 18/32/4 
f 9/20/4 25/55/4 22/54/4 20/86/4 
f 25/56/11 9/57/11 11/59/11 26/58/11 
f 11/60/12 13/61/12 27/63/12 26/62/12 
f 27/64/3 16/30/3 25/85/3 26/65/3 
f 27/66/6 28/68/6 17/67/6 16/30/6 
f 17/69/3 28/70/3 29/72/3 30/71/3 
f 29/73/12 28/74/12 12/76/12 31/75/12 
f 31/77/1 12/26/1 15/27/1 32/78/1 
f 32/79/4 15/80/4 17/82/4 30/81/4 
f 12/83/6 28/68/6 27/66/6 13/84/6 
f 10/33/13 9/20/13 20/86/13 
f 8/21/4 10/33/4 6/87/4 
f 6/87/4 10/33/4 14/29/4 2/88/4 
s 1
f 19/90/14 24/91/14 18/92/14 
usemtl Color_00
f 33/94/15 34/95/15 35/125/15 36/96/15 
s off
f 34/97/6 33/98/6 37/100/6 38/99/6 
f 33/98/16 39/101/16 40/136/16 37/100/16 
s 1
f 39/102/17 33/103/17 36/105/17 41/104/17 
s off
f 36/106/18 42/109/18 43/107/18 41/108/18 
s 1
f 43/110/4 42/111/19 44/113/19 38/112/13 
s off
f 44/114/16 45/115/16 34/97/16 38/99/16 
s 1
f 45/116/20 46/117/20 35/126/20 34/118/20 
f 46/119/21 45/120/21 44/122/21 42/121/21 
s off
f 46/123/11 42/109/11 36/106/11 35/124/11 
s 1
f 38/112/13 37/127/22 47/128/22 43/110/4 
s off
f 43/107/11 47/129/11 48/130/11 41/108/11 
s 1
f 48/131/23 40/132/24 39/137/25 41/133/25 
f 40/132/24 48/131/23 47/135/26 37/134/26 
# 40 polygons - 6 triangles

