# 3ds Max Wavefront OBJ Exporter v0.97b - (c)2007 guruware
# File Created: 20.10.2018 22:52:49

mtllib leg4.mtl

#
# object leg4
#

v  40.2661 16.4363 -61.3884
v  41.2661 16.4363 -61.3902
v  41.2661 18.5583 -61.3902
v  40.2661 18.5583 -61.3884
v  40.2616 0.3730 -63.9444
v  41.2616 0.3730 -63.9462
v  40.2599 0.5000 -64.9363
v  41.2599 0.5000 -64.9381
v  40.2634 16.5000 -62.8884
v  40.2642 16.5583 -62.4597
v  40.2642 18.5583 -62.4597
v  40.2616 36.1162 -63.9431
v  40.2634 18.5000 -62.8884
v  41.2616 36.1162 -63.9449
v  41.2634 16.5000 -62.8902
v  41.2634 18.5000 -62.8902
v  40.2599 36.0000 -64.9363
v  41.2599 36.0000 -64.9381
v  40.2651 18.5583 -61.9597
v  40.2651 16.5583 -61.9597
v  34.0151 16.5583 -61.9487
v  34.0142 16.5583 -62.4487
v  34.0142 18.5583 -62.4487
v  34.0151 18.5583 -61.9487
v  41.2650 17.4200 -61.9819
v  41.2649 17.2737 -62.0425
v  41.3374 17.2737 -62.0426
v  41.3375 17.4200 -61.9820
v  41.2644 17.5662 -62.3350
v  41.2643 17.4200 -62.3956
v  41.2649 17.5662 -62.0425
v  41.2647 17.6268 -62.1887
v  41.3374 17.5662 -62.0426
v  41.3369 17.2737 -62.3351
v  41.3368 17.4200 -62.3957
v  41.2644 17.2737 -62.3350
v  41.2647 17.2131 -62.1887
v  41.3372 17.2131 -62.1889
v  41.3369 17.5662 -62.3351
v  41.3372 17.6268 -62.1889
v  41.2613 34.8686 -64.1323
v  41.2612 34.7224 -64.1929
v  41.3337 34.7224 -64.1930
v  41.3338 34.8686 -64.1324
v  41.2607 35.0149 -64.4854
v  41.2606 34.8686 -64.5460
v  41.2612 35.0149 -64.1929
v  41.2609 35.0754 -64.3391
v  41.3337 35.0149 -64.1930
v  41.3332 34.7224 -64.4855
v  41.3331 34.8686 -64.5461
v  41.2607 34.7224 -64.4854
v  41.2609 34.6618 -64.3391
v  41.3334 34.6618 -64.3393
v  41.3332 35.0149 -64.4855
v  41.3334 35.0754 -64.3393
# 56 vertices

vn 0.0017 -0.0000 1.0000
vn 0.0017 -0.1571 0.9876
vn -0.0002 -0.9919 -0.1270
vn -1.0000 0.0000 0.0017
vn -1.0000 -0.0000 0.0017
vn 0.0017 0.1440 0.9896
vn 1.0000 -0.0000 -0.0017
vn 1.0000 0.0000 -0.0017
vn -0.0017 0.1270 -0.9919
vn -0.0017 0.0000 -1.0000
vn -0.0017 -0.1162 -0.9932
vn -0.0002 0.9932 -0.1162
vn -0.0000 -1.0000 -0.0000
vn 0.0000 1.0000 0.0000
vn 0.0016 -0.3827 0.9239
vn -1.0000 0.0000 0.0018
vn 0.0016 0.3827 0.9239
vn 1.0000 0.0000 -0.0018
vn -0.0016 -0.3827 -0.9239
vn -0.0017 -0.0000 -1.0000
vn 0.0007 -0.9239 0.3827
vn -0.0007 -0.9239 -0.3827
vn -0.0016 0.3827 -0.9239
vn 0.0007 0.9239 0.3827
vn -0.0007 0.9239 -0.3827
vn 0.0017 -0.3827 0.9239
vn 0.0017 0.3827 0.9239
vn -0.0017 -0.3827 -0.9239
vn -0.0017 0.3827 -0.9239
vn -0.0000 1.0000 -0.0000
# 30 vertex normals

vt 0.0394 0.6322 0.0000
vt 0.0000 0.6322 0.0000
vt 0.0394 0.7157 0.0000
vt 0.0000 0.6462 0.0000
vt 0.0394 0.6462 0.0000
vt 0.0000 0.0061 0.0000
vt 0.0394 0.0061 0.0000
vt -0.0394 -0.0387 0.0000
vt -0.0394 0.0006 0.0000
vt 0.0000 -0.0387 0.0000
vt 0.0000 0.0050 0.0000
vt -0.0390 0.0000 0.0000
vt -0.0806 0.6347 0.0000
vt -0.1396 0.6322 0.0000
vt -0.0975 0.6370 0.0000
vt -0.0975 0.7157 0.0000
vt -0.0806 0.7134 0.0000
vt -0.0391 1.4067 0.0000
vt -0.1396 0.7157 0.0000
vt 0.0394 0.6881 0.0000
vt 0.0000 0.6881 0.0000
vt 0.0394 1.3864 0.0000
vt 0.0000 0.7157 0.0000
vt 0.1396 0.6322 0.0000
vt 0.0806 0.7134 0.0000
vt 0.1396 0.7157 0.0000
vt 0.0806 0.6347 0.0000
vt 0.0390 0.0000 0.0000
vt 0.0000 0.0050 0.0000
vt 0.0000 0.0050 0.0000
vt -0.0394 0.0050 0.0000
vt 0.0000 0.6398 0.0000
vt 0.0000 0.0006 0.0000
vt -0.0394 0.6398 0.0000
vt 0.0000 0.6347 0.0000
vt -0.0394 0.6347 0.0000
vt 0.0000 0.7134 0.0000
vt -0.0394 0.7134 0.0000
vt 0.0000 0.6992 0.0000
vt -0.0394 0.6992 0.0000
vt 0.0000 1.3926 0.0000
vt -0.0394 1.3926 0.0000
vt -0.0394 0.1630 0.0000
vt -0.0394 0.2023 0.0000
vt 0.0000 0.1630 0.0000
vt 0.0000 1.4021 0.0000
vt 0.0000 0.2023 0.0000
vt 0.0000 1.4021 0.0000
vt 0.0391 1.4067 0.0000
vt 0.0000 1.3864 0.0000
vt -0.1171 0.7157 0.0000
vt -0.1171 0.6370 0.0000
vt 0.0394 0.0975 0.0000
vt 0.0394 0.1171 0.0000
vt 0.2853 0.0975 0.0000
vt 0.2853 0.1171 0.0000
vt -0.0394 0.6370 0.0000
vt -0.2853 0.6370 0.0000
vt -0.0394 0.7157 0.0000
vt -0.2853 0.7157 0.0000
vt -0.2853 0.0975 0.0000
vt -0.2853 0.1171 0.0000
vt -0.0394 0.0975 0.0000
vt -0.0394 0.1171 0.0000
vt -0.0328 0.0000 0.0000
vt -0.1911 0.0000 0.0000
vt -0.0328 0.2500 0.0000
vt -0.3531 0.3531 0.0000
vt -0.2068 0.4137 0.0000
vt -0.2068 0.0000 0.0000
vt -0.0606 0.0606 0.0000
vt -0.0606 0.3531 0.0000
vt -0.1911 0.0000 0.0000
vt -0.3494 0.0000 0.0000
vt -0.1911 0.2500 0.0000
vt -0.3494 0.2500 0.0000
vt 0.2068 0.4137 0.0000
vt 0.2068 0.0000 0.0000
vt 0.0606 0.3531 0.0000
vt 0.3531 0.0606 0.0000
vt 0.1911 0.2500 0.0000
vt 0.3494 0.2500 0.0000
vt 0.1911 0.0000 0.0000
vt 0.3494 0.0000 0.0000
vt -0.3531 0.0606 0.0000
vt -0.4137 0.2068 0.0000
vt 0.0328 0.0000 0.0000
vt 0.0328 0.2500 0.0000
vt 0.1911 0.0000 0.0000
vt 0.3494 0.2500 0.0000
vt 0.3494 0.0000 0.0000
vt 0.1911 0.2500 0.0000
vt 0.1911 0.0000 0.0000
vt 0.4137 0.2068 0.0000
vt 0.3531 0.3531 0.0000
vt -0.1911 0.2500 0.0000
vt 0.1911 0.2500 0.0000
vt 0.0328 0.0000 0.0000
vt 0.0328 0.2500 0.0000
vt 0.0606 0.0606 0.0000
vt 0.0000 0.2068 0.0000
vt -0.1911 0.2500 0.0000
vt -0.1911 0.0000 0.0000
vt -0.3494 0.2500 0.0000
vt -0.0328 0.0000 0.0000
vt -0.0328 0.2500 0.0000
vt 0.0000 0.2068 0.0000
vt -0.3494 0.0000 0.0000
vt -0.0328 0.0000 0.0000
vt -0.1911 0.0000 0.0000
vt -0.0328 0.2500 0.0000
vt -0.3531 0.3531 0.0000
vt -0.2068 0.4137 0.0000
vt -0.2068 0.0000 0.0000
vt -0.0606 0.0606 0.0000
vt -0.0606 0.3531 0.0000
vt -0.1911 0.0000 0.0000
vt -0.3494 0.0000 0.0000
vt -0.1911 0.2500 0.0000
vt -0.3494 0.2500 0.0000
vt 0.2068 0.4137 0.0000
vt 0.2068 0.0000 0.0000
vt 0.0606 0.3531 0.0000
vt 0.3531 0.0606 0.0000
vt 0.1911 0.2500 0.0000
vt 0.3494 0.2500 0.0000
vt 0.1911 0.0000 0.0000
vt 0.3494 0.0000 0.0000
vt -0.3531 0.0606 0.0000
vt -0.4137 0.2068 0.0000
vt 0.0328 0.0000 0.0000
vt 0.0328 0.2500 0.0000
vt 0.1911 0.0000 0.0000
vt 0.3494 0.2500 0.0000
vt 0.3494 0.0000 0.0000
vt 0.1911 0.2500 0.0000
vt 0.1911 0.0000 0.0000
vt 0.4137 0.2068 0.0000
vt 0.3531 0.3531 0.0000
vt -0.1911 0.2500 0.0000
vt 0.1911 0.2500 0.0000
vt 0.0328 0.0000 0.0000
vt 0.0328 0.2500 0.0000
vt 0.0606 0.0606 0.0000
vt 0.0000 0.2068 0.0000
vt -0.1911 0.2500 0.0000
vt -0.1911 0.0000 0.0000
vt -0.3494 0.2500 0.0000
vt -0.0328 0.0000 0.0000
vt -0.0328 0.2500 0.0000
vt 0.0000 0.2068 0.0000
vt -0.3494 0.0000 0.0000
# 152 texture coords

g leg4
usemtl ingo_ste
s off
f 1/1/1 2/2/1 3/23/1 4/3/1 
f 2/4/2 1/5/2 5/7/2 6/6/2 
f 5/8/3 7/9/3 8/33/3 6/10/3 
f 7/11/4 5/12/4 1/14/4 9/13/4 
f 10/15/5 11/16/5 9/13/5 1/14/5 
f 9/13/5 11/16/5 12/18/5 13/17/5 
f 4/19/4 12/18/4 11/16/4 
f 4/20/6 3/21/6 14/50/6 12/22/6 
f 2/24/7 15/27/7 16/25/7 3/26/7 
f 2/24/8 6/28/8 8/29/8 15/27/8 
f 8/30/9 7/31/9 9/34/9 15/32/9 
f 15/35/10 9/36/10 13/38/10 16/37/10 
f 16/39/11 13/40/11 17/42/11 18/41/11 
f 17/43/12 12/44/12 14/47/12 18/45/12 
f 17/46/5 13/17/5 12/18/5 
f 18/48/7 14/49/7 3/26/7 16/25/7 
f 19/51/13 4/19/13 11/16/13 
f 20/52/4 1/14/4 4/19/4 19/51/4 
f 20/52/4 10/15/4 1/14/4 
f 10/53/13 20/54/13 21/56/13 22/55/13 
f 10/57/10 22/58/10 23/60/10 11/59/10 
f 23/61/14 24/62/14 19/64/14 11/63/14 
usemtl Color_00
s 1
f 25/65/15 26/66/15 27/96/15 28/67/15 
s off
f 26/68/16 25/69/16 29/71/16 30/70/16 
f 25/69/5 31/72/5 32/107/5 29/71/5 
s 1
f 31/73/17 25/74/17 28/76/17 33/75/17 
s off
f 28/77/18 34/80/18 35/78/18 33/79/18 
s 1
f 35/81/10 34/82/19 36/84/19 30/83/20 
s off
f 36/85/4 37/86/4 26/68/4 30/70/4 
s 1
f 37/87/21 38/88/21 27/97/21 26/89/21 
f 38/90/22 37/91/22 36/93/22 34/92/22 
s off
f 38/94/7 34/80/7 28/77/7 27/95/7 
s 1
f 30/83/20 29/98/23 39/99/23 35/81/10 
s off
f 35/78/8 39/100/8 40/101/8 33/79/8 
s 1
f 40/102/14 32/103/14 31/108/24 33/104/24 
f 32/103/14 40/102/14 39/106/25 29/105/25 
f 41/109/15 42/110/15 43/140/26 44/111/15 
s off
f 42/112/4 41/113/4 45/115/4 46/114/4 
f 41/113/5 47/116/5 48/151/5 45/115/5 
s 1
f 47/117/27 41/118/17 44/120/17 49/119/17 
s off
f 44/121/8 50/124/8 51/122/8 49/123/8 
s 1
f 51/125/10 50/126/19 52/128/28 46/127/10 
s off
f 52/129/4 53/130/4 42/112/4 46/114/4 
s 1
f 53/131/21 54/132/21 43/141/21 42/133/21 
f 54/134/22 53/135/22 52/137/22 50/136/22 
s off
f 54/138/8 50/124/8 44/121/8 43/139/8 
s 1
f 46/127/10 45/142/23 55/143/29 51/125/10 
s off
f 51/122/7 55/144/7 56/145/7 49/123/7 
s 1
f 56/146/30 48/147/14 47/152/24 49/148/24 
f 48/147/14 56/146/30 55/150/25 45/149/25 
# 46 polygons - 4 triangles

