# 3ds Max Wavefront OBJ Exporter v0.97b - (c)2007 guruware
# File Created: 24.10.2018 14:28:28

mtllib leg2.mtl

#
# object leg2
#

v  16.7314 15.6368 -0.7538
v  15.6413 0.0394 1.6492
v  14.9960 0.0394 1.3565
v  16.0860 15.6368 -1.0465
v  16.7632 15.8148 -0.7286
v  15.6607 0.0394 1.7019
v  16.7632 17.6586 -0.7286
v  16.0447 17.6586 0.8553
v  16.0461 17.6586 -1.0538
v  16.0461 15.8148 -1.0538
v  14.9436 0.0394 1.3766
v  15.3276 17.6586 0.5301
v  15.6221 -0.0000 1.6917
v  14.9767 -0.0000 1.3989
v  15.3281 -0.0000 2.3398
v  14.6827 -0.0000 2.0471
v  15.3133 0.0394 2.3725
v  14.6679 0.0394 2.0797
v  15.9925 17.6586 0.8751
v  15.3471 17.6586 0.5823
v  15.3654 0.0394 2.3528
v  14.6484 0.0394 2.0275
v  16.7436 17.6586 -0.7807
v  16.7436 15.9887 -0.7807
v  16.0982 15.9887 -1.0734
v  16.0982 17.6586 -1.0734
v  16.7273 17.6980 -0.7448
v  16.0820 17.6980 -1.0376
v  16.0104 17.6980 0.8357
v  15.3650 17.6980 0.5430
# 30 vertices

vn 0.4073 -0.1668 -0.8979
vn 0.9320 -0.1179 -0.3428
vn 0.9107 -0.0000 0.4131
vn -0.9107 0.0000 -0.4131
vn -0.3559 -0.1179 -0.9270
vn 0.2666 -0.7638 -0.5878
vn 0.0000 -1.0000 0.0000
vn -0.3054 -0.6735 0.6732
vn -0.4113 0.0929 0.9067
vn 0.3531 0.0657 0.9333
vn 0.9107 0.0000 0.4131
vn 0.6439 -0.7071 0.2921
vn 0.2977 -0.5407 0.7868
vn 0.7219 -0.6391 -0.2655
vn -0.9348 0.0657 0.3491
vn -0.2757 -0.6391 -0.7181
vn -0.6439 -0.7071 -0.2921
vn -0.7881 -0.5407 0.2943
vn 0.4131 0.0000 -0.9107
vn 0.9361 0.0000 -0.3519
vn 0.7643 0.5773 -0.2873
vn 0.2921 0.7071 -0.6440
vn -0.2873 0.5773 -0.7643
vn -0.3518 0.0000 -0.9361
vn 0.4117 -0.0837 -0.9075
vn 0.8325 -0.0709 -0.5495
vn 0.6440 0.7071 0.2921
vn 0.0000 1.0000 -0.0000
vn -0.6440 0.7071 -0.2921
vn -0.1349 -0.0709 -0.9883
vn 0.2798 0.6123 0.7395
vn -0.2782 0.7392 0.6133
vn -0.7407 0.6123 0.2766
# 33 vertex normals

vt -0.0394 15.4295 0.0000
vt -0.0394 -0.4058 0.0000
vt -0.7480 15.4295 0.0000
vt -0.0066 15.5385 0.0000
vt 0.0280 15.7179 0.0000
vt 1.8723 -0.1849 0.0000
vt 0.0394 17.6771 0.0000
vt 1.7786 17.6771 0.0000
vt 0.0394 15.8314 0.0000
vt -0.0394 17.6771 0.0000
vt -0.0394 15.8314 0.0000
vt -1.7786 17.6771 0.0000
vt -0.5462 15.6045 0.0000
vt -2.4252 -0.1188 0.0000
vt -0.5809 15.7840 0.0000
vt -0.7480 -0.4058 0.0000
vt -0.7480 -2.0117 0.0000
vt -0.0394 -2.0117 0.0000
vt -0.7480 -2.0727 0.0000
vt -0.0394 -2.0727 0.0000
vt -2.7148 0.7480 0.0000
vt -2.7148 0.0394 0.0000
vt -3.4266 0.7480 0.0000
vt -3.4266 0.0394 0.0000
vt 0.7480 2.3063 0.0000
vt 0.0394 2.3063 0.0000
vt 0.7480 2.3596 0.0000
vt 0.0394 2.3596 0.0000
vt 0.0394 -0.2821 0.0000
vt 0.0394 17.4320 0.0000
vt 0.7480 -0.2821 0.0000
vt 1.3162 17.5566 0.0000
vt 2.4814 -0.1192 0.0000
vt 1.2604 17.5566 0.0000
vt 2.4256 -0.1192 0.0000
vt 3.4229 0.0394 0.0000
vt 2.7082 0.0394 0.0000
vt 3.4229 0.0279 0.0000
vt 3.4266 -0.0278 0.0000
vt 2.7082 0.0279 0.0000
vt 2.4560 1.2912 0.0000
vt 2.4256 1.3381 0.0000
vt 2.4814 1.3381 0.0000
vt 2.7148 -0.0278 0.0000
vt 1.8723 -1.1840 0.0000
vt 1.9284 -1.1840 0.0000
vt 1.9055 -1.2352 0.0000
vt 1.9284 -0.1849 0.0000
vt 0.7480 17.4320 0.0000
vt -1.9258 -0.1558 0.0000
vt -0.7606 17.5200 0.0000
vt -1.8700 -0.1558 0.0000
vt -0.7048 17.5200 0.0000
vt -3.4229 0.0394 0.0000
vt -2.7082 0.0394 0.0000
vt -2.4813 -0.1188 0.0000
vt -2.4813 -0.8259 0.0000
vt -2.4252 -0.8259 0.0000
vt -2.4584 -0.8771 0.0000
vt -2.7148 0.5287 0.0000
vt -3.4266 0.5287 0.0000
vt -2.7082 0.5844 0.0000
vt -3.4229 0.5844 0.0000
vt -1.9004 1.5927 0.0000
vt -1.9258 1.6396 0.0000
vt -1.8700 1.6396 0.0000
vt -0.0394 17.6771 0.0000
vt -0.0394 16.0055 0.0000
vt -0.7480 17.6771 0.0000
vt -0.0278 17.6771 0.0000
vt 0.0278 17.6771 0.0000
vt -0.0278 16.0055 0.0000
vt 0.0278 14.4544 0.0000
vt -0.0278 14.4544 0.0000
vt 0.0000 14.5027 0.0000
vt -0.0394 12.5619 0.0000
vt -0.0394 12.5062 0.0000
vt -0.7480 12.5619 0.0000
vt -0.7480 12.5062 0.0000
vt -0.5568 14.1814 0.0000
vt -0.5289 14.1332 0.0000
vt -0.5846 14.1332 0.0000
vt -0.5289 17.6771 0.0000
vt -0.5289 16.0055 0.0000
vt -0.5846 17.6771 0.0000
vt -0.7480 16.0055 0.0000
vt -0.7480 15.9494 0.0000
vt -0.0394 15.9494 0.0000
vt -0.7480 15.5960 0.0000
vt -0.0394 15.5960 0.0000
vt 0.0210 15.7893 0.0000
vt -0.0176 15.6107 0.0000
vt -0.0333 15.9638 0.0000
vt 0.0278 15.8314 0.0000
vt 1.7786 12.5062 0.0000
vt 0.0394 12.5062 0.0000
vt 1.7749 12.5619 0.0000
vt 0.0394 12.5619 0.0000
vt 1.7749 0.0394 0.0000
vt 0.0394 0.0394 0.0000
vt 1.7749 0.7480 0.0000
vt 0.0394 0.7480 0.0000
vt -1.7749 12.0054 0.0000
vt -0.0394 12.0054 0.0000
vt -1.7786 11.9497 0.0000
vt -0.0394 11.9497 0.0000
vt -0.5846 15.8314 0.0000
vt -0.6332 15.9935 0.0000
vt -0.6489 15.6404 0.0000
vt -0.6874 15.8190 0.0000
vt 1.2604 13.2133 0.0000
vt 1.2856 13.2632 0.0000
vt 1.3162 13.2133 0.0000
vt 0.0394 10.6267 0.0000
vt 0.7480 10.6267 0.0000
vt 0.0394 10.5682 0.0000
vt 0.7480 10.5682 0.0000
vt -0.7300 12.9217 0.0000
vt -0.7048 12.8719 0.0000
vt -0.7606 12.8719 0.0000
# 120 texture coords

g leg2
usemtl FrontCol
s off
f 1/1/1 2/2/1 3/16/1 4/3/1 
s 1
f 1/4/2 5/5/2 6/48/2 2/6/2 
s off
f 7/7/3 8/8/3 6/37/3 5/9/3 
f 9/10/4 10/11/4 11/55/4 12/12/4 
s 1
f 4/13/5 3/14/5 11/56/5 10/15/5 
f 3/17/6 2/18/6 13/20/6 14/19/6 
s off
f 14/21/7 13/22/7 15/24/7 16/23/7 
s 1
f 16/25/8 15/26/8 17/28/8 18/27/8 
s off
f 17/29/9 19/30/9 20/49/9 18/31/9 
s 1
f 19/32/10 17/33/10 21/35/10 8/34/10 
s off
f 21/36/11 6/37/11 8/8/11 
s 1
f 21/38/12 15/39/12 13/44/12 6/40/12 
f 15/41/13 21/42/13 17/43/13 
f 2/45/14 6/46/14 13/47/14 
f 18/50/15 20/51/15 12/53/15 22/52/15 
s off
f 22/54/4 12/12/4 11/55/4 
s 1
f 11/57/16 3/58/16 14/59/16 
f 14/60/17 16/61/17 22/63/17 11/62/17 
f 16/64/18 18/65/18 22/66/18 
s off
f 23/67/19 24/68/19 25/86/19 26/69/19 
s 1
f 23/70/20 7/71/20 5/94/20 24/72/20 
f 7/73/21 23/74/21 27/75/21 
f 27/76/22 23/77/22 26/79/22 28/78/22 
f 28/80/23 26/81/23 9/82/23 
f 26/83/24 25/84/24 10/107/24 9/85/24 
f 25/87/25 24/88/25 1/90/25 4/89/25 
f 5/91/26 1/92/26 24/93/26 
f 8/95/27 7/96/27 27/98/27 29/97/27 
s off
f 29/99/28 27/100/28 28/102/28 30/101/28 
s 1
f 30/103/29 28/104/29 9/106/29 12/105/29 
f 25/108/30 4/109/30 10/110/30 
f 8/111/31 29/112/31 19/113/31 
f 29/114/32 30/115/32 20/117/32 19/116/32 
f 30/118/33 12/119/33 20/120/33 
# 22 polygons - 12 triangles

