# 3ds Max Wavefront OBJ Exporter v0.97b - (c)2007 guruware
# File Created: 24.10.2018 14:28:50

mtllib leg4.mtl

#
# object leg3
#

v  28.4429 16.2739 -5.4883
v  28.7431 16.2739 -6.1502
v  28.7150 16.5159 -6.1629
v  28.4148 16.5159 -5.5011
v  30.6473 0.0394 -4.4883
v  30.9476 0.0394 -5.1502
v  28.3911 16.2685 -5.4686
v  30.5948 0.0394 -4.4689
v  28.3628 16.5118 -5.4814
v  28.3960 16.7597 -5.5096
v  28.3439 16.7572 -5.4900
v  28.3866 17.0045 -5.5139
v  28.3345 17.0037 -5.4943
v  28.3866 17.2496 -5.5139
v  28.3344 17.2505 -5.4943
v  28.3959 17.4945 -5.5096
v  28.3439 17.4969 -5.4900
v  28.6868 17.2496 -6.1757
v  28.6962 17.4945 -6.1715
v  28.6672 17.2505 -6.2278
v  28.6766 17.4969 -6.2236
v  28.6868 17.0045 -6.1757
v  28.6672 17.0037 -6.2278
v  28.6962 16.7597 -6.1714
v  28.6767 16.7572 -6.2235
v  28.6956 16.5118 -6.2150
v  27.1956 16.7467 -6.8954
v  28.7238 16.2685 -6.2022
v  30.4317 0.0394 -5.4274
v  30.9276 0.0394 -5.2025
v  30.9167 -0.0000 -5.1642
v  30.4231 -0.0000 -5.3881
v  30.6164 0.0000 -4.5024
v  30.1229 0.0000 -4.7263
v  26.8629 16.7467 -6.1618
v  30.0990 0.0394 -4.6939
v  26.8482 16.7173 -6.2117
v  30.0786 0.0394 -4.7463
v  26.8706 16.7907 -6.2015
v  28.4852 18.2900 -5.4259
v  28.5154 18.3552 -5.4554
v  28.3592 17.6962 -5.4831
v  28.4110 17.6901 -5.5028
v  28.7112 17.6901 -6.1647
v  28.6920 17.6962 -6.2166
v  28.8180 18.2900 -6.1594
v  28.8479 18.3339 -6.1027
v  28.8156 18.3552 -6.1173
v  27.1708 16.7907 -6.8634
v  27.1484 16.7173 -6.8736
v  30.3788 0.0394 -5.4082
v  28.5476 18.3339 -5.4408
# 52 vertices

vn 0.9034 0.1264 0.4098
vn 0.9007 0.1475 0.4086
vn 0.3448 0.1043 0.9329
vn 0.3467 0.0894 0.9337
vn 0.3496 0.0596 0.9350
vn 0.3513 0.0298 0.9358
vn 0.3518 0.0001 0.9361
vn 0.3519 0.0001 0.9361
vn 0.3513 -0.0297 0.9358
vn 0.9099 -0.0420 0.4127
vn 0.9355 -0.0297 -0.3521
vn 0.9361 0.0001 -0.3518
vn 0.9107 0.0001 0.4131
vn 0.9099 0.0422 0.4127
vn 0.9355 0.0298 -0.3521
vn 0.4131 -0.0000 -0.9107
vn 0.9338 0.0596 -0.3529
vn 0.9074 0.0843 0.4116
vn 0.9309 0.0894 -0.3542
vn 0.4131 0.0000 -0.9107
vn 0.2921 -0.7071 -0.6439
vn -0.0000 -1.0000 0.0000
vn 0.6898 -0.6529 0.3129
vn 0.9290 0.1043 -0.3550
vn 0.7988 -0.5184 -0.3053
vn 0.2965 -0.5183 0.8021
vn -0.4131 0.0000 0.9107
vn -0.9220 -0.1471 0.3583
vn -0.9220 -0.1471 0.3582
vn -0.9541 0.2751 0.1186
vn -0.7137 0.5345 0.4527
vn -0.4131 -0.0000 0.9107
vn 0.3496 -0.0595 0.9350
vn 0.9075 -0.0841 0.4116
vn 0.9338 -0.0595 -0.3529
vn 0.9192 -0.1605 -0.3595
vn -0.1295 0.5345 -0.8352
vn -0.5393 0.2751 -0.7960
vn -0.8634 0.3181 -0.3917
vn -0.8908 -0.2080 -0.4041
vn -0.3378 -0.1471 -0.9297
vn -0.3377 -0.1471 -0.9297
vn -0.2584 -0.6536 -0.7114
vn -0.5731 -0.7772 -0.2600
vn -0.2921 -0.7071 0.6439
vn -0.7055 -0.6536 0.2741
vn -0.5963 0.7558 -0.2705
vn 0.8869 -0.2270 0.4023
vn 0.3350 -0.1605 0.9284
vn 0.5987 0.4499 -0.6626
vn 0.4705 0.8562 0.2134
vn -0.1042 0.4499 0.8870
# 52 vertex normals

vt -0.0498 16.5554 0.0000
vt -0.9698 16.5554 0.0000
vt -0.0498 16.8005 0.0000
vt -0.0498 16.5612 0.0000
vt -0.0498 0.0401 0.0000
vt -0.9698 16.5612 0.0000
vt 2.1488 16.4213 0.0000
vt 2.2190 16.4158 0.0000
vt -0.0298 0.0444 0.0000
vt 2.2157 16.4126 0.0000
vt 2.1456 16.4180 0.0000
vt 2.2436 16.6575 0.0000
vt 2.1733 16.6616 0.0000
vt 2.2386 16.6329 0.0000
vt 2.1683 16.6371 0.0000
vt 2.2572 16.8790 0.0000
vt 2.1868 16.8815 0.0000
vt 2.2542 16.8303 0.0000
vt 2.1838 16.8327 0.0000
vt 2.2635 17.0769 0.0000
vt 2.1930 17.0777 0.0000
vt 2.2625 17.0038 0.0000
vt 2.1920 17.0047 0.0000
vt 2.2625 17.2507 0.0000
vt 2.1920 17.2498 0.0000
vt 2.1930 17.1525 0.0000
vt 2.1838 17.3975 0.0000
vt 2.2635 17.1533 0.0000
vt -0.0498 17.3031 0.0000
vt -0.0498 17.0580 0.0000
vt -0.9698 17.3031 0.0000
vt -0.9698 17.0580 0.0000
vt -2.9137 17.1796 0.0000
vt -2.9842 17.1804 0.0000
vt -2.9045 17.4246 0.0000
vt -2.9130 17.2498 0.0000
vt -2.9130 17.0046 0.0000
vt -2.9835 17.2506 0.0000
vt -0.9698 17.2500 0.0000
vt -0.0498 17.2500 0.0000
vt -0.9698 17.0049 0.0000
vt -0.0498 17.0049 0.0000
vt -0.0498 17.1483 0.0000
vt -0.0498 16.9032 0.0000
vt -0.9698 17.1483 0.0000
vt -0.9698 16.9032 0.0000
vt -2.9137 17.0505 0.0000
vt -2.9044 16.8055 0.0000
vt -2.9842 17.0497 0.0000
vt -2.9748 16.8030 0.0000
vt -3.1996 17.0037 0.0000
vt -3.1865 16.7572 0.0000
vt -5.2451 16.7467 0.0000
vt -3.1602 16.5118 0.0000
vt -2.9583 16.5785 0.0000
vt -2.9769 16.8246 0.0000
vt -2.8880 16.5826 0.0000
vt -2.9065 16.8271 0.0000
vt -0.9698 16.7532 0.0000
vt -0.9698 16.9984 0.0000
vt -0.0498 16.7532 0.0000
vt -0.0498 16.9984 0.0000
vt -0.9698 16.8005 0.0000
vt -2.8914 16.5799 0.0000
vt -2.8637 16.3363 0.0000
vt -2.9617 16.5758 0.0000
vt -2.9338 16.3309 0.0000
vt -3.1210 16.2685 0.0000
vt -0.7471 0.0394 0.0000
vt -0.0578 0.0394 0.0000
vt -0.7471 0.8245 0.0000
vt -0.0578 0.8245 0.0000
vt -0.7365 0.7610 0.0000
vt -0.0504 0.7610 0.0000
vt -0.0504 0.9698 0.0000
vt -0.0504 0.0498 0.0000
vt -0.7365 0.9698 0.0000
vt -0.0498 -0.0371 0.0000
vt -0.9698 -0.0371 0.0000
vt -0.0498 0.0211 0.0000
vt -0.9698 0.0211 0.0000
vt -0.9698 0.0401 0.0000
vt -2.8658 16.3259 0.0000
vt -0.6873 -0.0510 0.0000
vt -2.9360 16.3204 0.0000
vt -0.7581 -0.0510 0.0000
vt -0.6873 0.4478 0.0000
vt -0.7178 0.3982 0.0000
vt -0.7581 0.4478 0.0000
vt 0.0008 -0.0431 0.0000
vt -0.0298 0.0065 0.0000
vt 0.0411 0.0065 0.0000
vt 0.0411 0.0444 0.0000
vt 0.0578 0.0394 0.0000
vt 3.1210 16.2685 0.0000
vt 0.7471 0.0394 0.0000
vt 5.2451 16.7467 0.0000
vt 3.7496 17.1362 0.0000
vt 3.8153 17.1062 0.0000
vt 0.5341 0.1353 0.0000
vt 2.8043 14.1916 0.0000
vt 2.7393 14.2229 0.0000
vt 2.7880 14.2697 0.0000
vt 4.3882 11.2787 0.0000
vt 2.5016 13.2555 0.0000
vt 4.4254 11.3351 0.0000
vt 2.9901 18.2900 0.0000
vt 3.1653 17.6962 0.0000
vt 3.1866 17.4969 0.0000
vt 3.1997 17.2505 0.0000
vt 3.1996 17.0037 0.0000
vt 3.1865 16.7572 0.0000
vt 3.1602 16.5118 0.0000
vt 2.2542 17.4000 0.0000
vt 2.1868 17.2758 0.0000
vt 2.1720 17.4720 0.0000
vt 2.2572 17.2783 0.0000
vt -0.0498 17.2590 0.0000
vt -0.0498 17.0623 0.0000
vt -0.9698 17.2590 0.0000
vt -0.9698 17.0623 0.0000
vt -2.9065 17.3301 0.0000
vt -2.9769 17.3326 0.0000
vt -2.8917 17.5263 0.0000
vt -2.9749 17.4271 0.0000
vt -3.1866 17.4969 0.0000
vt -3.1997 17.2505 0.0000
vt -2.9835 17.0038 0.0000
vt -3.1653 17.6962 0.0000
vt -2.9619 17.5324 0.0000
vt -2.9089 17.0285 0.0000
vt -2.9790 17.0348 0.0000
vt -2.7728 17.6858 0.0000
vt -2.8535 17.6410 0.0000
vt -1.9542 12.8060 0.0000
vt -1.9430 12.7224 0.0000
vt -3.8668 10.8020 0.0000
vt -3.8296 10.7457 0.0000
vt -1.9347 14.0103 0.0000
vt -1.9185 14.0884 0.0000
vt -1.8698 14.0416 0.0000
vt 0.9698 13.4001 0.0000
vt 0.9698 13.3203 0.0000
vt 0.0498 13.4001 0.0000
vt 0.0498 13.3203 0.0000
vt 0.9698 17.5172 0.0000
vt 0.9698 0.2455 0.0000
vt 0.0498 17.5172 0.0000
vt -3.1023 17.2410 0.0000
vt -3.0367 17.2710 0.0000
vt 0.1076 0.2702 0.0000
vt 0.1789 0.2702 0.0000
vt 0.1789 0.9498 0.0000
vt 0.1516 0.8915 0.0000
vt 0.1076 0.9498 0.0000
vt 0.9698 0.6204 0.0000
vt 0.0498 0.6204 0.0000
vt 0.9698 0.6935 0.0000
vt -0.7365 0.0498 0.0000
vt 0.0504 -0.0391 0.0000
vt 0.0578 0.0244 0.0000
vt 0.7365 -0.0391 0.0000
vt 0.7471 0.0244 0.0000
vt 0.5613 0.3537 0.0000
vt 0.5341 0.4120 0.0000
vt 0.6053 0.4120 0.0000
vt 0.6053 0.1353 0.0000
vt 0.0498 0.2455 0.0000
vt 0.0498 0.6935 0.0000
vt 0.9698 5.1446 0.0000
vt 0.0498 5.1446 0.0000
vt 0.9698 7.9148 0.0000
vt 0.0498 7.9148 0.0000
vt -0.0498 16.7564 0.0000
vt -0.0498 16.0852 0.0000
vt -0.9698 16.7564 0.0000
vt 2.1975 16.8812 0.0000
vt 2.0614 17.5385 0.0000
vt 2.2676 16.8875 0.0000
vt 2.1421 17.4937 0.0000
vt 2.5127 13.3391 0.0000
vt 2.2422 17.4781 0.0000
vt -0.9698 16.0852 0.0000
vt -2.9901 18.2900 0.0000
vt -3.0823 15.4396 0.0000
vt -3.1585 15.3876 0.0000
vt -3.1250 15.4650 0.0000
vt -0.9698 10.5806 0.0000
vt -0.0498 10.5806 0.0000
vt -0.9698 10.5309 0.0000
vt -0.0498 10.5309 0.0000
vt 2.8485 15.9099 0.0000
vt 2.7723 15.9619 0.0000
vt 2.8150 15.9873 0.0000
# 194 texture coords

g leg3
usemtl FrontCol
s 9
f 1/1/1 2/2/1 3/63/1 4/3/1 
s 1
f 1/4/2 5/5/2 6/82/2 2/6/2 
s 3
f 1/7/3 7/8/3 8/93/3 5/9/3 
s 2
f 7/10/4 1/11/4 4/13/4 9/12/4 
f 9/14/5 4/15/5 10/17/5 11/16/5 
f 11/18/6 10/19/6 12/21/6 13/20/6 
f 13/22/7 12/23/7 14/25/8 15/24/8 
f 14/26/9 16/27/9 17/114/9 15/28/9 
s 1
f 16/29/10 14/30/10 18/32/10 19/31/10 
s 2
f 18/33/11 20/34/11 21/125/11 19/35/11 
f 18/36/12 22/37/12 23/128/12 20/38/12 
s 1
f 18/39/13 14/40/13 12/42/13 22/41/13 
f 12/43/14 10/44/14 24/46/14 22/45/14 
s 2
f 22/47/15 24/48/15 25/50/15 23/49/15 
s off
f 23/51/16 25/52/16 26/54/16 27/53/16 
s 7
f 26/55/17 25/56/17 24/58/17 3/57/17 
s 13
f 3/59/18 24/60/18 10/62/18 4/61/18 
s 6
f 3/64/19 2/65/19 28/67/19 26/66/19 
s off
f 26/54/20 28/68/20 29/69/20 27/53/20 
f 30/70/16 29/69/16 28/68/16 
s 1
f 29/71/21 30/72/21 31/74/21 32/73/21 
s off
f 31/75/22 33/76/22 34/159/22 32/77/22 
s 5
f 33/78/23 31/79/23 6/81/23 5/80/23 
s 6
f 2/83/24 6/84/24 30/86/24 28/85/24 
s 5
f 6/87/25 31/88/25 30/89/25 
s 1
f 33/90/26 5/91/26 8/92/26 
s off
f 8/94/27 7/95/27 35/97/27 36/96/27 
s 1
f 35/98/28 37/99/28 38/167/29 36/100/29 
f 37/101/30 35/102/30 39/103/30 
s 3
f 35/104/31 40/105/31 41/181/31 39/106/31 
s off
f 40/107/32 35/97/32 17/109/32 42/108/32 
f 17/109/27 35/97/27 13/111/27 15/110/27 
f 13/111/32 35/97/32 9/113/32 11/112/32 
f 9/113/32 35/97/32 7/95/32 
s 2
f 16/115/33 43/116/33 42/182/33 17/117/33 
s 1
f 43/118/34 16/119/34 19/121/34 44/120/34 
s 2
f 19/122/35 21/123/35 45/130/35 44/124/35 
s off
f 21/126/16 20/127/16 23/51/16 27/53/16 
f 45/129/20 21/126/20 27/53/20 46/184/20 
s 2
f 44/131/36 45/132/36 46/134/36 47/133/36 
f 48/135/37 46/136/37 27/138/37 49/137/37 
f 50/139/38 49/140/38 27/141/38 
s 3
f 49/142/39 50/143/39 37/145/39 39/144/39 
s off
f 50/146/40 51/147/40 38/168/40 37/148/40 
s 2
f 50/149/41 27/150/41 29/152/42 51/151/42 
s 3
f 29/153/43 32/154/43 51/155/43 
s 1
f 32/156/44 34/157/44 38/169/44 51/158/44 
f 33/160/45 8/161/45 36/163/45 34/162/45 
f 34/164/46 36/165/46 38/166/46 
s off
f 49/170/47 39/171/47 41/173/47 48/172/47 
s 1
f 52/174/48 43/175/48 44/183/48 47/176/48 
s 2
f 43/177/49 52/178/49 40/180/49 42/179/49 
f 47/185/50 46/186/50 48/187/50 
f 48/188/51 41/189/51 52/191/51 47/190/51 
f 40/192/52 52/193/52 41/194/52 
# 45 polygons - 10 triangles

