# 3ds Max Wavefront OBJ Exporter v0.97b - (c)2007 guruware
# File Created: 24.10.2018 14:21:26

mtllib leg2.mtl

#
# object leg2
#

v  43.3833 8.6692 -17.0004
v  43.2894 8.6690 -16.8781
v  43.2894 8.6616 -16.8781
v  43.3833 8.6617 -17.0005
v  43.3833 8.6698 -17.5910
v  43.2894 8.6700 -17.7133
v  43.4422 8.6693 -17.1429
v  43.4422 8.6697 -17.4486
v  43.4624 8.6695 -17.2957
v  43.4422 8.6619 -17.1429
v  43.4624 8.6621 -17.2957
v  43.4422 8.6622 -17.4486
v  43.3833 0.0003 -17.0102
v  43.4422 0.0005 -17.1526
v  43.4422 0.0008 -17.4583
v  43.4624 0.0007 -17.3055
v  43.3833 8.6624 -17.5910
v  43.3833 0.0010 -17.6007
v  43.2894 0.0002 -16.8879
v  43.1671 8.6615 -16.7843
v  43.2894 8.6625 -17.7133
v  43.1671 8.6689 -16.7843
v  43.1671 8.6701 -17.8072
v  43.1671 8.6627 -17.8072
v  43.2894 0.0011 -17.7230
v  43.1671 0.0001 -16.7940
v  43.0247 8.6614 -16.7253
v  43.0247 0.0000 -16.7350
v  42.8718 8.6614 -16.7052
v  42.8718 0.0000 -16.7149
v  42.7190 8.6614 -16.7253
v  42.7190 0.0000 -16.7350
v  42.8718 8.6688 -16.7052
v  42.7190 8.6688 -16.7253
v  42.8718 8.6701 -17.8863
v  42.7190 8.6701 -17.8661
v  43.0247 8.6688 -16.7253
v  43.0247 8.6701 -17.8661
v  43.0247 8.6627 -17.8662
v  43.1671 0.0012 -17.8169
v  43.0247 0.0013 -17.8759
v  42.8718 0.0013 -17.8960
v  42.5765 0.0001 -16.7940
v  42.7190 0.0013 -17.8759
v  42.5765 8.6615 -16.7843
v  42.5765 8.6689 -16.7843
v  42.5765 8.6701 -17.8072
v  42.7190 8.6627 -17.8662
v  42.5765 8.6627 -17.8072
v  42.5765 0.0012 -17.8169
v  42.4542 0.0002 -16.8879
v  42.4542 8.6616 -16.8781
v  42.4542 8.6690 -16.8781
v  42.4542 8.6700 -17.7133
v  42.4542 8.6625 -17.7133
v  42.8718 8.6627 -17.8863
v  42.3604 8.6617 -17.0005
v  42.3604 8.6624 -17.5910
v  42.3604 0.0003 -17.0102
v  42.3014 8.6619 -17.1429
v  42.3014 0.0005 -17.1526
v  42.2813 8.6621 -17.2957
v  42.2813 0.0007 -17.3055
v  42.3014 8.6622 -17.4486
v  42.3014 0.0008 -17.4583
v  42.3604 0.0010 -17.6007
v  42.4542 0.0011 -17.7230
v  42.3604 8.6698 -17.5910
v  42.3014 8.6697 -17.4486
v  42.2813 8.6695 -17.2957
v  42.3014 8.6693 -17.1429
v  42.3604 8.6692 -17.0004
# 72 vertices

vn 0.7934 -0.0008 0.6088
vn -0.0000 1.0000 0.0011
vn 0.9914 -0.0002 0.1305
vn 0.9914 -0.0001 0.1305
vn 0.0000 -1.0000 -0.0011
vn 0.9239 -0.0005 0.3827
vn 0.9239 -0.0004 0.3827
vn 0.9659 -0.0003 0.2588
vn 0.8660 -0.0006 0.5000
vn -0.0000 -1.0000 -0.0011
vn 0.9659 0.0003 -0.2588
vn 1.0000 -0.0000 0.0000
vn 0.9914 0.0001 -0.1305
vn 0.9914 0.0002 -0.1305
vn 0.9239 0.0005 -0.3827
vn 0.9239 0.0004 -0.3827
vn 0.8660 0.0006 -0.5000
vn 0.7071 -0.0008 0.7071
vn 0.7934 -0.0007 0.6088
vn 0.6088 -0.0010 0.7934
vn 0.6088 -0.0008 0.7933
vn 0.0000 1.0000 0.0011
vn 0.6088 0.0008 -0.7934
vn 0.7934 0.0006 -0.6088
vn 0.7934 0.0008 -0.6088
vn 0.7934 0.0007 -0.6088
vn 0.7071 0.0008 -0.7071
vn 0.6088 -0.0009 0.7934
vn 0.5000 -0.0010 0.8660
vn 0.2588 -0.0011 0.9659
vn 0.3827 -0.0010 0.9239
vn 0.0000 -0.0011 1.0000
vn 0.1305 -0.0011 0.9914
vn -0.2588 -0.0011 0.9659
vn -0.1305 -0.0011 0.9914
vn -0.1305 -0.0010 0.9914
vn 0.3827 0.0010 -0.9239
vn 0.5000 0.0010 -0.8660
vn 0.2588 0.0011 -0.9659
vn 0.6088 0.0009 -0.7934
vn -0.5000 -0.0010 0.8660
vn -0.3827 -0.0010 0.9239
vn -0.3827 0.0010 -0.9239
vn -0.5000 0.0010 -0.8660
vn -0.2588 0.0011 -0.9659
vn -0.7071 -0.0008 0.7071
vn -0.6088 -0.0009 0.7934
vn -0.6088 -0.0008 0.7933
vn -0.6088 -0.0010 0.7934
vn -0.6088 0.0008 -0.7934
vn 0.1305 -0.0010 0.9914
vn 0.1305 0.0013 -0.9914
vn 0.1305 0.0010 -0.9914
vn -0.1305 0.0013 -0.9914
vn -0.1305 0.0010 -0.9914
vn -0.1305 0.0011 -0.9914
vn 0.0000 0.0011 -1.0000
vn 0.1305 0.0011 -0.9914
vn -0.8660 -0.0006 0.5000
vn -0.7933 -0.0007 0.6088
vn -0.9239 -0.0004 0.3827
vn -1.0000 -0.0000 0.0000
vn -0.9914 -0.0001 0.1305
vn -0.9659 0.0003 -0.2588
vn -0.9914 0.0001 -0.1305
vn -0.8660 0.0006 -0.5000
vn -0.9239 0.0004 -0.3827
vn -0.7071 0.0008 -0.7071
vn -0.7933 0.0007 -0.6088
vn -0.6088 0.0009 -0.7934
vn -0.7933 0.0008 -0.6088
vn -0.7933 0.0006 -0.6088
vn -0.9239 0.0005 -0.3827
vn -0.9914 0.0002 -0.1305
vn -0.9914 -0.0002 0.1305
vn -0.9239 -0.0005 0.3827
vn -0.7933 -0.0008 0.6088
# 77 vertex normals

vt -15.5248 -0.0079 0.0000
vt -15.5902 -0.0083 0.0000
vt -15.5248 -0.0082 0.0000
vt -15.5902 -0.0079 0.0000
vt -2.4065 -2.9729 0.0000
vt -2.4463 -2.9363 0.0000
vt -2.4463 -2.9791 0.0000
vt -2.4065 -2.9425 0.0000
vt -2.3814 -2.9655 0.0000
vt -2.3814 -2.9499 0.0000
vt -2.3729 -2.9577 0.0000
vt -12.5167 -0.0086 0.0000
vt -12.4512 -0.0082 0.0000
vt -12.5167 -0.0083 0.0000
vt -12.4512 -0.0086 0.0000
vt 30.2602 -2.9655 0.0000
vt 30.2602 -2.9499 0.0000
vt 30.2517 -2.9577 0.0000
vt 30.2853 -2.9729 0.0000
vt -14.9743 -0.0083 0.0000
vt -15.0398 -0.0087 0.0000
vt -14.9743 -0.0087 0.0000
vt -15.0398 -0.0083 0.0000
vt 14.5301 -0.0000 0.0000
vt 14.5958 0.4444 0.0000
vt 14.5301 0.4444 0.0000
vt 14.5958 -0.0000 0.0000
vt 30.2602 -2.9499 0.0000
vt 30.2602 -2.9655 0.0000
vt 30.2853 -2.9729 0.0000
vt 30.2517 -2.9577 0.0000
vt 14.7270 0.4444 0.0000
vt 14.6614 -0.0000 0.0000
vt 14.7270 -0.0000 0.0000
vt 14.6614 0.4444 0.0000
vt -8.1274 -0.0077 0.0000
vt -8.1929 -0.0081 0.0000
vt -8.1274 -0.0080 0.0000
vt -8.1929 -0.0077 0.0000
vt -2.3630 -0.0071 0.0000
vt -2.2976 -0.0067 0.0000
vt -2.3630 -0.0067 0.0000
vt -2.2976 -0.0071 0.0000
vt 14.7270 -0.0000 0.0000
vt 14.7927 0.4444 0.0000
vt 14.7927 -0.0000 0.0000
vt 30.2853 -2.9425 0.0000
vt 30.3251 -2.9791 0.0000
vt 14.4645 -0.0000 0.0000
vt 14.5301 -0.0000 0.0000
vt 14.4645 0.4444 0.0000
vt 30.2853 -2.9425 0.0000
vt 30.3251 -2.9791 0.0000
vt 30.3251 -2.9363 0.0000
vt 30.3770 -2.9839 0.0000
vt -14.0651 -0.0074 0.0000
vt -14.1305 -0.0070 0.0000
vt -14.1305 -0.0074 0.0000
vt -14.0651 -0.0070 0.0000
vt -2.4982 -2.9315 0.0000
vt -2.4982 -2.9839 0.0000
vt 12.1501 -0.0048 0.0000
vt 12.2155 -0.0052 0.0000
vt 12.2155 -0.0048 0.0000
vt 12.1501 -0.0052 0.0000
vt 4.6410 -0.0057 0.0000
vt 4.5756 -0.0061 0.0000
vt 4.6410 -0.0061 0.0000
vt 4.5756 -0.0057 0.0000
vt 14.7927 -0.0000 0.0000
vt 14.8583 0.4444 0.0000
vt 14.8583 -0.0000 0.0000
vt 30.3251 -2.9363 0.0000
vt 30.3770 -2.9839 0.0000
vt 14.4645 -0.0000 0.0000
vt 14.3989 0.4444 0.0000
vt 14.3989 -0.0000 0.0000
vt 14.3332 0.4444 0.0000
vt 14.3989 -0.0000 0.0000
vt 14.3332 -0.0000 0.0000
vt 14.2676 0.4444 0.0000
vt 14.3332 -0.0000 0.0000
vt 14.2676 -0.0000 0.0000
vt 14.2019 -0.0000 0.0000
vt 14.2676 -0.0000 0.0000
vt 14.2019 0.4444 0.0000
vt 0.7449 -0.0045 0.0000
vt 0.6795 -0.0048 0.0000
vt 0.7449 -0.0048 0.0000
vt 0.6795 -0.0045 0.0000
vt -2.6236 -2.9880 0.0000
vt -2.6885 -2.9284 0.0000
vt -2.6885 -2.9870 0.0000
vt -2.6236 -2.9274 0.0000
vt -2.5587 -2.9870 0.0000
vt -2.5587 -2.9284 0.0000
vt 19.8443 -0.0044 0.0000
vt 19.9098 -0.0048 0.0000
vt 19.9098 -0.0044 0.0000
vt 19.8443 -0.0048 0.0000
vt 14.9240 0.4444 0.0000
vt 14.9896 -0.0000 0.0000
vt 14.9896 0.4444 0.0000
vt 14.9240 -0.0000 0.0000
vt 14.9240 -0.0000 0.0000
vt 14.8583 -0.0000 0.0000
vt 30.3770 -2.9315 0.0000
vt 30.4375 -2.9870 0.0000
vt 30.4375 -2.9284 0.0000
vt 30.5024 -2.9880 0.0000
vt 30.5024 -2.9274 0.0000
vt 30.5673 -2.9870 0.0000
vt 30.5673 -2.9284 0.0000
vt 30.6277 -2.9839 0.0000
vt 14.1363 -0.0000 0.0000
vt 14.2019 -0.0000 0.0000
vt 14.1363 0.4444 0.0000
vt 8.0345 -0.0044 0.0000
vt 7.9690 -0.0048 0.0000
vt 8.0345 -0.0048 0.0000
vt 7.9690 -0.0044 0.0000
vt -2.7490 -2.9315 0.0000
vt -2.7490 -2.9839 0.0000
vt 38.5735 -0.0064 0.0000
vt 38.6389 -0.0060 0.0000
vt 38.5735 -0.0060 0.0000
vt 38.6389 -0.0064 0.0000
vt 15.1209 -0.0000 0.0000
vt 15.1865 0.4444 0.0000
vt 15.1209 0.4444 0.0000
vt 15.1865 -0.0000 0.0000
vt 30.6277 -2.9315 0.0000
vt 30.6797 -2.9791 0.0000
vt 14.0707 -0.0000 0.0000
vt 14.1363 -0.0000 0.0000
vt 14.0707 0.4444 0.0000
vt 15.7287 -0.0048 0.0000
vt 15.6633 -0.0052 0.0000
vt 15.7287 -0.0052 0.0000
vt 15.6633 -0.0048 0.0000
vt -2.8009 -2.9363 0.0000
vt -2.8009 -2.9791 0.0000
vt 41.9439 -0.0074 0.0000
vt 42.0093 -0.0070 0.0000
vt 41.9439 -0.0070 0.0000
vt 42.0093 -0.0074 0.0000
vt 30.6277 -2.9315 0.0000
vt 30.6797 -2.9791 0.0000
vt 30.6797 -2.9363 0.0000
vt 30.6277 -2.9839 0.0000
vt 30.5673 -2.9284 0.0000
vt 30.5673 -2.9870 0.0000
vt 30.5024 -2.9274 0.0000
vt 30.5024 -2.9880 0.0000
vt 30.4375 -2.9284 0.0000
vt 30.4375 -2.9870 0.0000
vt 30.3770 -2.9315 0.0000
vt -10.6947 -0.0064 0.0000
vt -10.7601 -0.0060 0.0000
vt -10.7601 -0.0064 0.0000
vt -10.6947 -0.0060 0.0000
vt -5.7087 -0.0050 0.0000
vt -5.6433 -0.0054 0.0000
vt -5.6433 -0.0050 0.0000
vt -5.7087 -0.0054 0.0000
vt 27.1993 -0.0048 0.0000
vt 27.1339 -0.0045 0.0000
vt 27.1339 -0.0048 0.0000
vt 27.1993 -0.0045 0.0000
vt 33.5220 -0.0054 0.0000
vt 33.5875 -0.0050 0.0000
vt 33.5220 -0.0050 0.0000
vt 33.5875 -0.0054 0.0000
vt 15.0552 -0.0000 0.0000
vt 15.0552 0.4444 0.0000
vt 15.1209 -0.0000 0.0000
vt 15.0552 -0.0000 0.0000
vt 14.9896 -0.0000 0.0000
vt 30.7195 -2.9729 0.0000
vt 14.0050 0.4444 0.0000
vt 14.0707 -0.0000 0.0000
vt 14.0050 -0.0000 0.0000
vt 13.9394 0.4444 0.0000
vt 14.0050 -0.0000 0.0000
vt 13.9394 -0.0000 0.0000
vt 15.4490 0.4444 0.0000
vt 15.5147 -0.0000 0.0000
vt 15.5147 0.4444 0.0000
vt 15.4490 -0.0000 0.0000
vt 15.3834 0.4444 0.0000
vt 15.4490 -0.0000 0.0000
vt 15.3834 -0.0000 0.0000
vt 15.3178 0.4444 0.0000
vt 15.3834 -0.0000 0.0000
vt 15.3178 -0.0000 0.0000
vt 15.2521 0.4444 0.0000
vt 15.3178 -0.0000 0.0000
vt 15.2521 -0.0000 0.0000
vt 15.1865 -0.0000 0.0000
vt 15.2521 -0.0000 0.0000
vt 30.6797 -2.9363 0.0000
vt 30.7195 -2.9729 0.0000
vt 30.7195 -2.9425 0.0000
vt 30.7446 -2.9655 0.0000
vt 30.7446 -2.9499 0.0000
vt 30.7531 -2.9577 0.0000
vt 43.4690 -0.0083 0.0000
vt 43.4036 -0.0079 0.0000
vt 43.4036 -0.0082 0.0000
vt 43.4690 -0.0079 0.0000
vt 42.9186 -0.0087 0.0000
vt 42.8531 -0.0083 0.0000
vt 42.8531 -0.0087 0.0000
vt 42.9186 -0.0083 0.0000
vt 40.3955 -0.0086 0.0000
vt 40.3300 -0.0082 0.0000
vt 40.3300 -0.0086 0.0000
vt 40.3955 -0.0083 0.0000
vt 36.0717 -0.0081 0.0000
vt 36.0062 -0.0077 0.0000
vt 36.0062 -0.0080 0.0000
vt 36.0717 -0.0077 0.0000
vt 30.2418 -0.0071 0.0000
vt 30.1764 -0.0067 0.0000
vt 30.1764 -0.0071 0.0000
vt 30.2418 -0.0067 0.0000
vt 23.3032 -0.0061 0.0000
vt 23.2378 -0.0057 0.0000
vt 23.2378 -0.0061 0.0000
vt 23.3032 -0.0057 0.0000
vt -2.8407 -2.9425 0.0000
vt -2.8407 -2.9729 0.0000
vt -2.8658 -2.9499 0.0000
vt -2.8658 -2.9655 0.0000
vt -2.8743 -2.9577 0.0000
vt 30.7195 -2.9425 0.0000
vt 30.7446 -2.9655 0.0000
vt 30.7446 -2.9499 0.0000
vt 30.7531 -2.9577 0.0000
vt 14.5958 -0.0000 0.0000
vt 14.6614 -0.0000 0.0000
# 241 texture coords

g leg2
usemtl 06___Default
s 1
f 1/1/1 2/4/1 3/2/1 4/3/1 
s off
f 1/5/2 5/8/2 6/6/2 2/7/2 
f 7/9/2 8/10/2 5/8/2 1/5/2 
f 8/10/2 7/9/2 9/11/2 
s 1
f 10/12/3 11/15/4 9/13/4 7/14/3 
s off
f 10/16/5 4/19/5 12/17/5 11/18/5 
s 1
f 7/20/6 1/23/6 4/21/6 10/22/6 
f 13/24/7 14/27/7 10/25/8 4/26/9 
s off
f 15/28/10 16/31/10 14/29/10 13/30/10 
s 1
f 12/32/11 11/35/12 16/33/13 15/34/13 
f 8/36/14 9/39/13 11/37/13 12/38/14 
f 12/40/15 17/43/15 5/41/15 8/42/15 
f 15/44/16 18/46/16 17/45/17 12/32/11 
s off
f 15/28/5 13/30/5 19/48/5 18/47/5 
s 1
f 4/26/9 3/51/18 19/49/19 13/50/19 
s off
f 17/52/10 12/17/10 4/19/10 3/53/10 
f 17/52/10 3/53/10 20/55/10 21/54/10 
s 1
f 3/56/20 2/59/20 22/57/21 20/58/21 
s off
f 2/7/22 6/6/22 23/60/22 22/61/22 
s 1
f 6/62/23 21/65/23 24/63/23 23/64/23 
f 6/66/24 5/69/25 17/67/25 21/68/24 
f 18/70/26 25/72/26 21/71/27 17/45/17 
s off
f 18/47/5 19/48/5 26/74/5 25/73/5 
s 1
f 19/75/28 3/51/18 20/76/29 26/77/28 
f 27/78/30 28/80/31 26/79/31 20/76/29 
f 29/81/32 30/83/33 28/82/33 27/78/30 
f 29/81/32 31/86/34 32/84/35 30/85/35 
f 33/87/36 34/90/36 31/88/36 29/89/36 
s off
f 33/91/2 35/94/2 36/92/2 34/93/2 
f 37/95/22 38/96/22 35/94/22 33/91/22 
f 22/61/2 23/60/2 38/96/2 37/95/2 
s 1
f 23/97/37 24/100/37 39/98/37 38/99/37 
f 24/101/38 40/104/37 41/102/37 39/103/39 
f 21/71/27 25/106/40 40/105/40 24/101/38 
s off
f 25/73/10 26/74/10 28/108/10 40/107/10 
f 40/107/5 28/108/5 30/110/5 41/109/5 
f 41/109/10 30/110/10 32/112/10 42/111/10 
f 42/111/5 32/112/5 43/114/5 44/113/5 
s 1
f 31/86/34 45/117/41 43/115/42 32/116/42 
f 34/118/42 46/121/42 45/119/42 31/120/42 
s off
f 34/93/22 36/92/22 47/122/22 46/123/22 
s 1
f 48/124/43 49/127/43 47/125/43 36/126/43 
f 44/128/43 50/131/43 49/129/44 48/130/45 
s off
f 44/113/10 43/114/10 51/133/10 50/132/10 
s 1
f 45/117/41 52/136/46 51/134/47 43/135/47 
f 46/137/48 53/140/49 52/138/49 45/139/48 
s off
f 46/123/2 47/122/2 54/141/2 53/142/2 
s 1
f 49/143/50 55/146/50 54/144/50 47/145/50 
s off
f 49/147/5 45/150/5 52/148/5 55/149/5 
f 48/151/10 31/152/10 45/150/10 49/147/10 
f 56/153/5 29/154/5 31/152/5 48/151/5 
f 39/155/10 27/156/10 29/154/10 56/153/10 
f 24/157/5 20/55/5 27/156/5 39/155/5 
f 21/54/10 20/55/10 24/157/10 
s 1
f 20/158/31 22/161/31 37/159/31 27/160/31 
f 33/162/51 29/165/51 27/163/51 37/164/51 
f 56/166/52 35/169/52 38/167/53 39/168/53 
f 56/170/54 48/173/55 36/171/55 35/172/54 
f 42/174/56 44/176/56 48/130/45 56/175/57 
f 39/103/39 41/178/58 42/177/58 56/175/57 
s off
f 55/149/5 52/148/5 57/179/5 58/236/5 
s 1
f 57/180/59 59/182/60 51/181/60 52/136/46 
f 60/183/61 61/185/61 59/184/61 57/180/59 
f 62/186/62 63/189/63 61/187/63 60/188/63 
f 64/190/64 65/192/65 63/191/65 62/186/62 
f 58/193/66 66/195/67 65/194/67 64/190/64 
f 55/196/68 67/198/69 66/197/69 58/193/66 
f 55/196/68 49/129/44 50/199/70 67/200/70 
s off
f 50/132/5 51/133/5 59/202/5 67/201/5 
f 67/201/5 59/202/5 61/204/5 66/203/5 
f 66/203/10 61/204/10 63/206/10 65/205/10 
s 1
f 58/207/71 68/210/71 54/208/72 55/209/72 
f 64/211/73 69/214/73 68/212/73 58/213/73 
f 62/215/65 70/218/65 69/216/74 64/217/74 
f 60/219/75 71/222/75 70/220/63 62/221/63 
f 57/223/76 72/226/76 71/224/76 60/225/76 
f 52/227/77 53/230/77 72/228/77 57/229/77 
s off
f 53/142/22 54/141/22 68/231/22 72/232/22 
f 72/232/22 68/231/22 69/233/22 71/234/22 
f 71/234/22 69/233/22 70/235/22 
f 58/236/5 57/179/5 60/237/5 64/238/5 
f 64/238/10 60/237/10 62/239/10 
s 1
f 11/35/12 10/25/8 14/240/4 16/241/4 
# 79 polygons - 4 triangles

