# 3ds Max Wavefront OBJ Exporter v0.97b - (c)2007 guruware
# File Created: 24.10.2018 14:21:40

mtllib leg4.mtl

#
# object leg4
#

v  41.7278 8.5830 -37.9967
v  41.1404 8.5224 -38.0008
v  41.5797 8.4910 -37.4325
v  41.7319 8.5040 -37.4115
v  41.8759 8.6749 -38.5609
v  41.7237 8.6619 -38.5819
v  42.1403 8.6816 -38.4076
v  42.0180 8.6816 -38.5015
v  42.2942 8.6619 -38.1442
v  42.2345 8.6749 -38.2858
v  42.3152 8.6435 -37.9926
v  42.2386 8.5960 -37.7005
v  42.2963 8.6211 -37.8413
v  42.0250 8.5449 -37.4878
v  42.1461 8.5700 -37.5800
v  41.8838 8.5224 -37.4303
v  42.6155 0.0124 -38.5630
v  42.7610 0.0124 -38.5832
v  42.7693 0.0124 -38.5844
v  42.8233 0.0124 -38.6072
v  42.8972 0.0124 -38.6383
v  42.9129 0.0124 -38.6449
v  42.9635 0.0124 -38.6840
v  43.0365 0.0124 -38.7405
v  43.0146 0.0124 -38.7235
v  43.0046 0.0124 -38.7124
v  43.0772 0.0124 -38.7934
v  43.1063 0.0124 -38.8314
v  43.1318 0.0124 -38.8646
v  43.1587 0.0124 -38.9289
v  43.1687 0.0124 -38.9530
v  43.1921 0.0124 -39.0087
v  43.2018 0.0124 -39.0796
v  43.2134 0.0124 -39.1631
v  43.2045 0.0124 -39.2212
v  43.1942 0.0124 -39.3172
v  43.1738 0.0124 -39.3594
v  43.1147 0.0124 -39.4799
v  43.1359 0.0124 -39.4605
v  43.0424 0.0121 -39.5833
v  42.9201 0.0121 -39.6772
v  42.7773 0.0124 -39.7357
v  42.6238 0.0124 -39.7549
v  42.4700 0.0124 -39.7335
v  41.5718 8.6435 -38.5630
v  42.3264 0.0124 -39.6730
v  41.4306 8.6211 -38.5056
v  42.2027 0.0124 -39.5774
v  41.3096 8.5960 -38.4134
v  42.1075 0.0124 -39.4533
v  41.2170 8.5700 -38.2928
v  42.0472 0.0124 -39.3092
v  41.1593 8.5449 -38.1521
v  42.0259 0.0124 -39.1548
v  42.0451 0.0124 -39.0007
v  41.1615 8.5040 -37.8492
v  42.1034 0.0124 -38.8574
v  41.2211 8.4910 -37.7076
v  42.1969 0.0124 -38.7346
v  41.3153 8.4843 -37.5857
v  42.3192 0.0124 -38.6408
v  41.4376 8.4843 -37.4919
v  42.4620 0.0124 -38.5822
v  43.1660 0.0124 -38.9426
v  43.0991 0.0124 -38.8179
v  42.8881 0.0124 -38.6320
v  42.7559 0.0124 -38.5813
# 67 vertices

vn -0.1026 0.9857 0.1337
vn 0.0154 -0.1328 0.9910
vn 0.1367 -0.1191 0.9834
vn 0.2641 -0.1026 0.9590
vn 0.0069 -0.1337 0.9910
vn 0.2748 -0.1011 0.9562
vn 0.0000 -1.0000 -0.0000
vn 0.3870 -0.0842 0.9182
vn 0.5033 -0.0645 0.8617
vn 0.5144 -0.0625 0.8553
vn 0.6110 -0.0436 0.7904
vn 0.7179 -0.0197 0.6958
vn 0.7933 -0.0000 0.6088
vn 0.8649 0.0220 0.5015
vn 0.8717 0.0243 0.4895
vn 0.9216 0.0436 0.3856
vn 0.9626 0.0645 0.2632
vn 0.9658 0.0665 0.2507
vn 0.9871 0.0842 0.1362
vn 0.9946 0.1041 -0.0043
vn 0.9947 0.1026 0.0069
vn 0.8580 0.1557 -0.4895
vn 0.9590 0.1337 -0.2498
vn 0.9567 0.1346 -0.2582
vn 0.8552 0.1560 -0.4943
vn 0.6971 0.1671 -0.6973
vn 0.6985 0.1670 -0.6959
vn 0.4931 0.1671 -0.8538
vn 0.4914 0.1670 -0.8548
vn 0.2561 0.1560 -0.9540
vn 0.2508 0.1557 -0.9554
vn 0.0018 0.1346 -0.9909
vn -0.0069 0.1337 -0.9910
vn -0.2533 0.1041 -0.9618
vn -0.2641 0.1026 -0.9590
vn -0.4921 0.0665 -0.8680
vn -0.5033 0.0645 -0.8617
vn -0.6984 0.0243 -0.7153
vn -0.7083 0.0220 -0.7056
vn -0.8580 -0.0197 -0.5133
vn -0.8649 -0.0220 -0.5015
vn -0.9593 -0.0625 -0.2755
vn -0.9626 -0.0645 -0.2632
vn -0.9871 -0.0842 -0.1362
vn -0.9612 -0.1328 0.2416
vn -0.9590 -0.1337 0.2498
vn -0.9853 -0.1191 0.1225
vn -0.8607 -0.1553 0.4849
vn -0.8580 -0.1557 0.4895
vn -0.6998 -0.1670 0.6946
vn -0.6985 -0.1670 0.6959
vn -0.4898 -0.1670 0.8557
vn -0.4914 -0.1670 0.8548
vn -0.2456 -0.1553 0.9568
vn -0.2508 -0.1557 0.9554
vn 0.7082 -0.0220 0.7056
# 56 vertex normals

vt -107.0517 -20.4643 0.0000
vt -106.8257 -21.0099 0.0000
vt -106.6922 -20.9328 0.0000
vt -107.5202 -20.8238 0.0000
vt -107.4112 -19.9958 0.0000
vt -107.2777 -19.9187 0.0000
vt -107.1288 -19.8788 0.0000
vt -106.9746 -19.8788 0.0000
vt -106.8257 -19.9187 0.0000
vt -106.6922 -19.9958 0.0000
vt -106.5832 -20.1048 0.0000
vt -106.5061 -20.2383 0.0000
vt -106.4662 -20.3872 0.0000
vt -106.4662 -20.5414 0.0000
vt -106.5061 -20.6903 0.0000
vt -106.5832 -20.8238 0.0000
vt 14.3332 0.0511 0.0000
vt 14.3989 0.4931 0.0000
vt 14.3332 0.4931 0.0000
vt 14.3953 0.0502 0.0000
vt 14.3989 0.0501 0.0000
vt -97.4283 -48.1207 0.0000
vt -97.3660 -48.1446 0.0000
vt -97.4200 -48.1218 0.0000
vt 14.4236 0.0497 0.0000
vt 14.4645 0.4931 0.0000
vt 14.4573 0.0491 0.0000
vt 14.4645 0.0490 0.0000
vt -97.2921 -48.1757 0.0000
vt -97.2258 -48.2214 0.0000
vt -97.2764 -48.1824 0.0000
vt 14.4913 0.0484 0.0000
vt 14.5301 0.0476 0.0000
vt 14.5185 0.0479 0.0000
vt -97.1747 -48.2610 0.0000
vt -97.1847 -48.2498 0.0000
vt -97.1121 -48.3309 0.0000
vt -97.1528 -48.2779 0.0000
vt 14.5581 0.0471 0.0000
vt 14.5958 0.4931 0.0000
vt 14.5782 0.0467 0.0000
vt 14.5958 0.0463 0.0000
vt -97.0830 -48.3689 0.0000
vt -97.0306 -48.4664 0.0000
vt -97.0575 -48.4020 0.0000
vt 14.6251 0.0457 0.0000
vt 14.6614 0.4931 0.0000
vt 14.6360 0.0455 0.0000
vt 14.6614 0.0450 0.0000
vt -97.0206 -48.4904 0.0000
vt -96.9875 -48.6170 0.0000
vt -96.9972 -48.5462 0.0000
vt 14.6915 0.0444 0.0000
vt 14.7270 0.4931 0.0000
vt 14.7270 0.0438 0.0000
vt -96.9848 -48.7586 0.0000
vt -96.9759 -48.7005 0.0000
vt -96.9951 -48.8546 0.0000
vt -97.0155 -48.8968 0.0000
vt -97.0534 -48.9980 0.0000
vt -97.0746 -49.0174 0.0000
vt 14.8583 0.4931 0.0000
vt 14.7927 0.0429 0.0000
vt 14.8583 0.0422 0.0000
vt 14.7927 0.4931 0.0000
vt 14.9240 0.4931 0.0000
vt 14.9240 0.0418 0.0000
vt 14.9896 0.4931 0.0000
vt 14.9896 0.0418 0.0000
vt 15.0552 0.0422 0.0000
vt 15.0552 0.4931 0.0000
vt 15.1209 0.4931 0.0000
vt 15.1209 0.0429 0.0000
vt 15.1865 0.4931 0.0000
vt 15.1865 0.0438 0.0000
vt 15.2521 0.0450 0.0000
vt 15.2521 0.4931 0.0000
vt 15.3178 0.4931 0.0000
vt 15.3178 0.0463 0.0000
vt 15.3834 0.0476 0.0000
vt 15.3834 0.4931 0.0000
vt 15.4490 0.0490 0.0000
vt 15.4490 0.4931 0.0000
vt 15.5147 0.0501 0.0000
vt 15.5147 0.4931 0.0000
vt 14.0050 0.0511 0.0000
vt 13.9394 0.4931 0.0000
vt 13.9394 0.0501 0.0000
vt 14.0050 0.4931 0.0000
vt 14.0707 0.0518 0.0000
vt 14.0707 0.4931 0.0000
vt 14.1363 0.0521 0.0000
vt 14.1363 0.4931 0.0000
vt 14.2019 0.0521 0.0000
vt 14.2019 0.4931 0.0000
vt 14.2676 0.4931 0.0000
vt 14.2676 0.0518 0.0000
vt -106.9746 -21.0498 0.0000
vt -107.1288 -21.0498 0.0000
vt -107.2777 -21.0099 0.0000
vt -107.4112 -20.9328 0.0000
vt -107.6372 -20.5414 0.0000
vt -107.5973 -20.6903 0.0000
vt -107.6372 -20.3872 0.0000
vt -107.5973 -20.2383 0.0000
vt -107.5202 -20.1048 0.0000
vt -97.0233 -48.4801 0.0000
vt -97.0902 -48.3553 0.0000
vt 14.5301 0.4931 0.0000
vt -97.3012 -48.1695 0.0000
vt -97.5738 -48.1005 0.0000
vt -97.4334 -48.1187 0.0000
# 112 texture coords

g leg4
usemtl 06___Default
s off
f 1/1/1 2/4/1 3/2/1 4/3/1 
f 1/1/1 5/6/1 6/5/1 2/4/1 
f 1/1/1 7/8/1 8/7/1 5/6/1 
f 1/1/1 9/10/1 10/9/1 7/8/1 
f 9/10/1 1/1/1 11/11/1 
f 1/1/1 12/13/1 13/12/1 11/11/1 
f 12/13/1 1/1/1 14/15/1 15/14/1 
f 14/15/1 1/1/1 4/3/1 16/16/1 
s 1
f 17/17/2 18/20/3 16/18/4 4/19/5 
f 16/18/4 18/20/3 19/21/6 
s off
f 18/22/7 20/23/7 19/24/7 
s 1
f 16/18/4 19/21/6 20/25/8 14/26/9 
f 21/27/8 22/28/10 14/26/9 20/25/8 
s off
f 21/29/7 23/30/7 22/31/7 
s 1
f 23/32/11 24/33/12 14/26/9 22/28/10 
s off
f 24/33/7 23/32/7 25/34/7 
f 23/30/7 25/35/7 26/36/7 
f 25/35/7 27/37/7 24/38/7 
s 1
f 27/39/13 28/41/13 12/40/14 24/33/12 
f 12/40/14 28/41/13 29/42/15 
s off
f 28/43/7 30/44/7 29/45/7 
s 1
f 30/46/16 31/48/16 13/47/17 29/42/15 
f 13/47/17 31/48/16 32/49/18 
s off
f 31/50/7 33/51/7 32/52/7 
s 1
f 33/53/19 34/55/20 11/54/21 32/49/18 
s off
f 33/51/7 35/56/7 36/58/7 34/57/7 
f 36/58/7 35/56/7 37/59/7 
f 36/58/7 37/59/7 38/61/7 39/60/7 
s 1
f 10/62/22 9/65/23 36/63/24 39/64/25 
f 9/65/23 11/54/21 34/55/20 36/63/24 
f 39/64/25 40/67/26 7/66/27 10/62/22 
f 40/67/26 41/69/28 8/68/29 7/66/27 
f 42/70/30 5/71/31 8/68/29 41/69/28 
f 42/70/30 43/73/32 6/72/33 5/71/31 
f 43/73/32 44/75/34 45/74/35 6/72/33 
f 46/76/36 47/77/37 45/74/35 44/75/34 
f 46/76/36 48/79/38 49/78/39 47/77/37 
f 50/80/40 51/81/41 49/78/39 48/79/38 
f 52/82/42 53/83/43 51/81/41 50/80/40 
f 54/84/44 2/85/44 53/83/43 52/82/42 
f 55/86/45 56/89/46 2/87/47 54/88/47 
f 57/90/48 58/91/49 56/89/46 55/86/45 
f 59/92/50 60/93/51 58/91/49 57/90/48 
f 61/94/52 62/95/53 60/93/51 59/92/50 
f 61/94/52 63/97/54 3/96/55 62/95/53 
f 17/17/2 4/19/5 3/96/55 63/97/54 
s off
f 3/2/1 2/4/1 60/99/1 62/98/1 
f 60/99/1 2/4/1 56/101/1 58/100/1 
f 2/4/1 49/104/1 51/102/1 53/103/1 
f 2/4/1 45/106/1 47/105/1 49/104/1 
f 2/4/1 6/5/1 45/106/1 
s 1
f 32/49/18 11/54/21 13/47/17 
s off
f 30/44/7 31/50/7 64/107/7 
s 1
f 29/42/15 13/47/17 12/40/14 
s off
f 27/37/7 28/43/7 65/108/7 
s 1
f 24/33/12 12/40/14 15/109/56 
f 14/26/9 24/33/12 15/109/56 
s off
f 20/23/7 21/29/7 66/110/7 
f 17/111/7 18/22/7 67/112/7 
# 38 polygons - 21 triangles

